:SAMPLES-PER-SECOND 30
:FULLY-SPECIFIED
:DEGREES
518
root  -76.5078 30.2569 -33.6818 2.86609 -41.8988 -4.73369
RightUpLeg  -30.1614 -20.5954 -10.5846
RightLeg  44.9538 7.45138 6.46331
RightFoot  3.55446 -0.02149 1.06992
RightToes  -59.9694 -0.394258 -0.398139
Spine  10.1195 -0.883482 1.36416
Spine1  19.2969 0.133505 -2.54352
HEad  48.9036 14.3099 -3.22644
LeftShoulder1  0 -2.42657e-020 -4.95415e-022
LeftArm  -33.8054 11.5249 -82.4318
LeftForeArm  -166.241 -24.2758 -4.1324
LeftHand  13.1468 -27.7659 -50.3732
RightShoulder  0 2.42657e-020 1.07489e-018
RightArm  -31.6309 7.88126 65.7942
RightForeArm  102.831 79.8857 90.2572
RightHand  1.57011 23.3766 7.95112
LeftUpLeg  -39.3168 9.75618 13.3582
LeftLeg  79.2198 -3.55381 -13.5401
LeftFoot  -0.0215693 3.06278e-005 0.162685
LeftToes  -31.1684 1.18758e-006 1.19596e-007
519
root  -78.0961 29.3926 -32.5972 2.1272 -38.0194 -5.2083
RightUpLeg  -28.325 -22.7105 -11.8405
RightLeg  52.9931 5.19517 5.95772
RightFoot  -4.71259 -0.0180321 -0.0606797
RightToes  -58.7382 -0.382674 -0.397511
Spine  10.4076 0.323529 0.851909
Spine1  19.6087 2.69069 -2.98388
HEad  49.7642 13.2127 -2.28212
LeftShoulder1  0 -2.42657e-020 -4.95415e-022
LeftArm  -35.3271 8.55267 -83.069
LeftForeArm  -165.56 -21.6081 -3.58453
LeftHand  13.4325 -28.2617 -50.5166
RightShoulder  0 2.42657e-020 1.07489e-018
RightArm  -29.8462 11.5536 66.7169
RightForeArm  59.1683 74.261 39.0971
RightHand  1.98752 23.6447 9.84709
LeftUpLeg  -46.0507 11.9887 14.3802
LeftLeg  72.6379 -2.41498 -6.26803
LeftFoot  -4.39791 0.0211532 0.550881
LeftToes  -20.4853 1.18758e-006 1.19596e-007
520
root  -79.5118 28.8762 -31.2801 2.55383 -34.34 -6.29381
RightUpLeg  -25.0347 -24.3222 -12.5653
RightLeg  57.0592 3.57371 4.72194
RightFoot  -9.87477 -0.0542342 -0.250264
RightToes  -59.0258 -0.385373 -0.397621
Spine  10.3969 1.49995 0.508643
Spine1  19.5478 5.39388 -3.06973
HEad  50.9678 12.721 -1.75335
LeftShoulder1  0 -2.42657e-020 -4.95415e-022
LeftArm  -38.688 6.90047 -84.7768
LeftForeArm  -165.802 -20.3232 -3.32815
LeftHand  13.5475 -28.5808 -50.3801
RightShoulder  0 2.42657e-020 1.07489e-018
RightArm  -28.2894 14.7606 69.9343
RightForeArm  40.8772 57.2796 15.9841
RightHand  1.84473 24.2933 8.92793
LeftUpLeg  -51.292 15.4999 12.5436
LeftLeg  60.9891 -2.02194 -3.15746
LeftFoot  -4.2684 0.0115201 0.309122
LeftToes  -14.5001 1.18758e-006 1.19596e-007
521
root  -80.8702 28.4703 -29.6572 3.96509 -30.0138 -7.44268
RightUpLeg  -20.5272 -26.9968 -13.241
RightLeg  58.3506 2.5879 3.56602
RightFoot  -13.9057 -0.0366686 0.0768671
RightToes  -60.0823 -0.395323 -0.398441
Spine  10.5741 3.26478 0.540878
Spine1  19.5508 10.3609 -4.15321
HEad  52.099 11.7595 -0.822868
LeftShoulder1  0 -2.42657e-020 -4.95415e-022
LeftArm  -42.1539 4.85277 -86.6539
LeftForeArm  -166.012 -18.9433 -3.05747
LeftHand  13.9285 -29.2902 -50.4859
RightShoulder  0 2.42657e-020 1.07489e-018
RightArm  -28.7577 16.2271 74.4007
RightForeArm  39.4692 35.6742 7.2633
RightHand  0.538765 27.4842 2.57339
LeftUpLeg  -56.7392 19.3566 7.0254
LeftLeg  48.3858 -2.57923 -2.55722
LeftFoot  3.26168 -0.000467021 0.0163942
LeftToes  -15.2642 1.18758e-006 1.19596e-007
522
root  -82.187 28.163 -27.6582 4.63025 -26.6391 -8.93564
RightUpLeg  -13.3071 -27.3574 -13.8109
RightLeg  56.3796 1.24633 1.56541
RightFoot  -16.9576 0.060595 0.784059
RightToes  -60.6854 -0.401026 -0.399945
Spine  10.8488 5.18632 0.420925
Spine1  19.6931 15.3068 -5.0057
HEad  53.2602 10.6842 -0.0261406
LeftShoulder1  0 -2.42657e-020 -4.95415e-022
LeftArm  -46.7399 3.87783 -88.4539
LeftForeArm  -167.603 -17.7533 -2.82824
LeftHand  14.2027 -30.0734 -50.1384
RightShoulder  0 2.42657e-020 1.07489e-018
RightArm  -33.9347 18.4738 79.0244
RightForeArm  54.5077 18.3893 3.32247
RightHand  -0.123114 27.2538 -0.137865
LeftUpLeg  -60.9092 23.633 -0.0568998
LeftLeg  39.4732 -5.19602 -3.74108
LeftFoot  8.9356 0.0374996 -0.479932
LeftToes  -26.1424 1.18758e-006 1.19596e-007
523
root  -83.3305 28.1299 -25.3478 4.72876 -24.4396 -10.539
RightUpLeg  -4.42121 -26.2706 -14.1276
RightLeg  51.0144 -0.44855 -0.53607
RightFoot  -16.6081 0.165172 1.50923
RightToes  -62.0571 -0.414054 -0.403167
Spine  10.5095 7.20589 -0.417728
Spine1  18.8941 19.4285 -5.66032
HEad  55.1699 8.97641 2.44962
LeftShoulder1  0 -2.42657e-020 -4.95415e-022
LeftArm  -50.3841 4.58929 -88.9108
LeftForeArm  -169.314 -16.1952 -2.53257
LeftHand  14.5538 -30.9939 -49.8349
RightShoulder  0 2.42657e-020 1.07489e-018
RightArm  -45.3737 19.9674 81.9959
RightForeArm  72.3535 5.24707 0.858159
RightHand  0.909159 26.305 4.2603
LeftUpLeg  -61.465 24.9924 -3.92862
LeftLeg  35.1918 -2.80039 -1.72006
LeftFoot  6.54621 -0.0150718 0.263536
LeftToes  -21.1838 1.18758e-006 1.19596e-007
524
root  -84.2751 28.3833 -22.7381 4.59985 -22.6954 -11.7861
RightUpLeg  4.15101 -23.628 -14.4128
RightLeg  44.9829 -1.60691 -1.4438
RightFoot  -10.3833 0.103417 1.51582
RightToes  -67.5187 -0.466578 -0.412881
Spine  9.61752 8.88451 -1.91276
Spine1  17.2046 21.9574 -6.61643
HEad  56.3223 6.87972 5.7474
LeftShoulder1  0 -2.42657e-020 -4.95415e-022
LeftArm  -56.1359 7.60824 -88.3407
LeftForeArm  -168.59 -18.1662 -2.90822
LeftHand  14.5745 -32.1527 -48.2346
RightShoulder  0 2.42657e-020 1.07489e-018
RightArm  -33.4299 16.6907 86.4482
RightForeArm  79.6217 1.32969 0.14932
RightHand  2.54412 20.7038 14.2362
LeftUpLeg  -57.5902 23.636 -4.64218
LeftLeg  33.5398 2.97459 1.70205
LeftFoot  2.8255 -0.0189666 0.769038
LeftToes  -17.2928 1.18758e-006 1.19596e-007
525
root  -84.8173 28.68 -19.951 5.65112 -18.8267 -11.5401
RightUpLeg  8.57701 -22.8319 -15.9747
RightLeg  43.1631 -0.552613 -0.483943
RightFoot  1.74214 -0.0107064 1.08128
RightToes  -78.9279 -0.577947 -0.416852
Spine  7.93097 9.1159 -3.92548
Spine1  13.4626 21.8616 -9.53494
HEad  58.8043 6.26977 9.38328
LeftShoulder1  0 -2.42657e-020 -4.95415e-022
LeftArm  -61.2517 13.781 -85.5811
LeftForeArm  -171.911 -21.6492 -3.59669
LeftHand  14.5403 -33.2776 -46.6112
RightShoulder  0 2.42657e-020 1.07489e-018
RightArm  -32.9371 9.81107 92.3063
RightForeArm  73.9853 2.98205 0.454912
RightHand  1.73029 16.1919 12.4943
LeftUpLeg  -53.2384 17.1758 -5.01151
LeftLeg  30.6506 1.44494 0.731313
LeftFoot  3.65998 -0.0207765 0.650261
LeftToes  11.6468 1.18758e-006 1.19596e-007
526
root  -85.1814 29.1457 -17.4704 6.84241 -12.6987 -11.669
RightUpLeg  8.66509 -19.9161 -13.8136
RightLeg  45.8142 -0.571671 -0.551863
RightFoot  16.1235 -0.0561293 0.773795
RightToes  -71.7418 -0.507687 -0.416937
Spine  7.02473 8.41349 -5.21521
Spine1  11.5177 20.027 -11.5463
HEad  58.9622 5.66421 12.703
LeftShoulder1  0 -2.42657e-020 -4.95415e-022
LeftArm  -64.1032 18.0748 -81.8142
LeftForeArm  -173.035 -22.7158 -3.81418
LeftHand  14.2806 -34.1698 -44.727
RightShoulder  0 2.42657e-020 1.07489e-018
RightArm  -36.8091 5.3497 96.0913
RightForeArm  79.9421 4.20447 0.652954
RightHand  0.777528 20.4299 4.68434
LeftUpLeg  -53.9497 3.98226 -0.228324
LeftLeg  37.6505 3.50523 2.35381
LeftFoot  5.50169 -0.0400955 0.834461
LeftToes  19.4974 1.18758e-006 1.19596e-007
527
root  -85.4321 29.8747 -15.0996 6.52026 -6.11266 -11.4527
RightUpLeg  6.77643 -14.1043 -9.60236
RightLeg  49.9812 1.6642 1.69443
RightFoot  30.1577 -0.423856 1.9506
RightToes  -56.2357 -0.35936 -0.387361
Spine  7.46404 8.04546 -5.99472
Spine1  12.4959 18.8859 -12.4847
HEad  56.8684 3.95344 14.5878
LeftShoulder1  0 -2.42657e-020 -4.95415e-022
LeftArm  -64.5061 20.4939 -78.863
LeftForeArm  -172.261 -26.2879 -4.56488
LeftHand  12.9947 -35.2093 -39.8647
RightShoulder  0 2.42657e-020 1.07489e-018
RightArm  -36.8863 3.18942 97.0396
RightForeArm  72.5165 6.52972 1.08491
RightHand  -0.353074 23.3935 -1.33564
LeftUpLeg  -51.5612 -1.88201 -0.191446
LeftLeg  39.981 4.25251 3.11243
LeftFoot  6.11898 -0.0479022 0.896196
LeftToes  16.3769 1.18758e-006 1.19596e-007
528
root  -85.5292 30.6331 -12.768 6.84424 -0.801478 -12.1536
RightUpLeg  4.40355 -7.65633 -4.86119
RightLeg  50.2365 6.39032 6.65788
RightFoot  27.2494 -1.0702 4.79073
RightToes  -55.2641 -0.3504 -0.384185
Spine  7.51329 7.55677 -6.24248
Spine1  12.74 17.5882 -12.7734
HEad  56.8097 4.76601 14.1821
LeftShoulder1  0 -2.42657e-020 -4.95415e-022
LeftArm  -61.455 26.5604 -76.9742
LeftForeArm  -174.363 -33.584 -6.26364
LeftHand  10.8292 -35.8118 -33.0739
RightShoulder  0 2.42657e-020 1.07489e-018
RightArm  -34.0528 1.42164 96.0247
RightForeArm  66.4587 9.17172 1.57281
RightHand  -0.23167 23.2051 -0.758511
LeftUpLeg  -48.1623 0.408104 -2.50589
LeftLeg  39.8244 0.385601 0.276318
LeftFoot  3.69483 -0.0121988 0.293007
LeftToes  16.398 1.18758e-006 1.19596e-007
529
root  -85.4206 31.4794 -10.5134 7.14429 6.27608 -12.6727
RightUpLeg  3.38994 -5.95429 -2.62897
RightLeg  44.8726 6.00033 5.19609
RightFoot  23.0735 -0.633329 3.47944
RightToes  -53.8921 -0.337843 -0.379443
Spine  7.43487 6.37043 -6.09447
Spine1  12.8674 14.9354 -12.51
HEad  57.8974 4.59811 15.0482
LeftShoulder1  0 -2.42657e-020 -4.95415e-022
LeftArm  -57.8074 32.6297 -74.4309
LeftForeArm  -175.05 -39.7523 -7.94168
LeftHand  8.41081 -37.0737 -25.1111
RightShoulder  0 2.42657e-020 1.07489e-018
RightArm  -39.671 -0.159869 94.6255
RightForeArm  64.3467 10.6243 1.84071
RightHand  -0.176669 23.4259 -0.482232
LeftUpLeg  -43.8602 -1.01907 -3.32258
LeftLeg  37.955 -2.42167 -1.65431
LeftFoot  0.997372 -0.00380759 0.116581
LeftToes  15.7486 1.18758e-006 1.19596e-007
530
root  -85.1236 32.2886 -8.3585 6.99854 13.9534 -13.498
RightUpLeg  2.94779 -6.60015 -1.72878
RightLeg  37.2325 -0.355846 -0.253951
RightFoot  21.3344 0.0707178 0.00210818
RightToes  -48.2353 -0.287382 -0.356763
Spine  7.29508 5.46787 -5.43879
Spine1  13.1423 12.6056 -11.0059
HEad  58.3925 3.30723 15.6235
LeftShoulder1  0 -2.42657e-020 -4.95415e-022
LeftArm  -57.48 37.3054 -72.8459
LeftForeArm  -177.284 -45.7856 -9.91224
LeftHand  9.21792 -36.6531 -27.7318
RightShoulder  0 2.42657e-020 1.07489e-018
RightArm  -43.6426 -2.95945 91.4555
RightForeArm  58.9353 12.2316 2.14691
RightHand  0.00404011 23.3966 0.389626
LeftUpLeg  -38.938 -6.98908 -2.16278
LeftLeg  35.1192 -1.78252 -1.09384
LeftFoot  -0.850354 -0.00263428 0.0714677
LeftToes  11.7991 1.18758e-006 1.19596e-007
531
root  -84.7512 32.9833 -6.3782 7.33618 20.2334 -14.4869
RightUpLeg  0.216243 -6.72262 -1.51318
RightLeg  31.8564 -9.69186 -5.1594
RightFoot  17.5535 0.570286 -3.31481
RightToes  -43.2306 -0.244791 -0.332635
Spine  6.8661 5.11615 -4.78869
Spine1  12.6905 11.4485 -9.5634
HEad  57.3166 2.50723 15.9161
LeftShoulder1  0 -2.42657e-020 -4.95415e-022
LeftArm  -61.9891 40.6111 -70.9976
LeftForeArm  -176.197 -49.3923 -11.3071
LeftHand  7.66943 -37.7412 -22.5636
RightShoulder  0 2.42657e-020 1.07489e-018
RightArm  -43.5264 -6.74429 87.3128
RightForeArm  53.9624 13.8795 2.46241
RightHand  0.3437 22.96 2.06281
LeftUpLeg  -34.4285 -10.7592 -1.0949
LeftLeg  31.3162 -1.04344 -0.55016
LeftFoot  -3.18865 0.000770743 0.0276821
LeftToes  12.3289 1.18758e-006 1.19596e-007
